# xmcd
#
# Track frame offsets: 
#        150
#        16190
#        30877
#
# Disc length: 624 seconds
#
# Revision: 0
# Processed by: cddbd v1.4PL0 Copyright (c) Steve Scherf et al.
# Submitted via: ExactAudioCopy v0.95a1
#
DISCID=10026e03
DTITLE=Wynonna - Lets Make  A Baby King
DYEAR=1994
DGENRE=Country
TTITLE0=Lets Make  A Baby King
TTITLE1=Girls With Guitars
TTITLE2=Only Love
EXTD=
EXTT0=
EXTT1=
EXTT2=
PLAYORDER=
